<svg width="36" height="35" viewBox="0 0 36 35" fill="none" xmlns="http://www.w3.org/2000/svg">
<mask id="path-1-outside-1_3_500" maskUnits="userSpaceOnUse" x="3.5" y="4.83539" width="29" height="25" fill="black">
<rect fill="white" x="3.5" y="4.83539" width="29" height="25"/>
<path d="M16.023 19.8329C16.1802 19.8329 16.3036 19.6983 16.29 19.5416C16.2779 19.4031 16.162 19.2968 16.023 19.2968H7.779C7.51867 19.2968 7.31645 19.07 7.34619 18.8114C7.36631 18.6365 7.4903 18.4921 7.65459 18.4288C7.77066 18.3841 7.88672 18.3341 8.00279 18.2842C8.85011 17.9159 9.7243 17.5475 11.6225 17.5126C11.787 17.5096 11.9212 17.3766 11.9212 17.2121C11.9212 17.0476 11.787 16.914 11.6225 16.9169C9.64463 16.9518 8.70873 17.3335 7.81876 17.6966L7.76532 17.7184C7.70596 17.7333 7.65402 17.7556 7.60208 17.7779C7.52513 17.811 7.44994 17.748 7.4603 17.6649L7.54455 16.9888C7.57089 16.7774 7.71173 16.6011 7.90593 16.5134C7.93984 16.4981 7.9723 16.4828 8.00279 16.4675C8.85011 16.0992 9.7243 15.7308 11.6226 15.6959C11.787 15.6929 11.9212 15.5599 11.9212 15.3954C11.9212 15.2309 11.787 15.0973 11.6225 15.1002C9.64463 15.1351 8.70873 15.5168 7.81875 15.8799L7.80919 15.8838C7.79735 15.8886 7.78508 15.8926 7.77281 15.8967C7.75508 15.9025 7.73732 15.9083 7.72079 15.9166C7.6983 15.9279 7.67901 15.9094 7.68212 15.8844L7.80005 14.9379C7.81544 14.8144 7.89151 14.7067 8.00279 14.6508C8.85011 14.2825 9.7243 13.9141 11.6226 13.8792C11.787 13.8762 11.9212 13.7432 11.9212 13.5787C11.9212 13.4142 11.7872 13.2806 11.6227 13.2835C9.81274 13.3165 8.85793 13.6476 7.9925 13.9478C7.92868 13.97 7.86382 13.9176 7.87193 13.8505L8.32254 10.1275C8.34256 9.9621 8.22277 9.8125 8.05697 9.79587C7.89521 9.77964 7.7504 9.8963 7.73182 10.0578L7.61235 11.0967C7.54727 11.6625 7.06823 12.0896 6.49866 12.0896C5.79846 12.0896 5.26962 11.4548 5.39607 10.7661L5.8198 8.45828C6.03544 7.28386 7.05912 6.43103 8.25317 6.43103C9.03893 6.43103 9.74127 6.88885 10.4374 7.34262C10.777 7.56403 11.1152 7.78447 11.4609 7.9503C11.7389 8.08365 12.0467 8.15838 12.3664 8.15838C12.6446 8.15838 12.9099 8.10502 13.1534 8.00802C13.5799 7.83813 13.992 7.57998 14.4048 7.32143C15.1146 6.87681 15.8263 6.43103 16.6157 6.43103C17.8869 6.43103 18.9778 7.33638 19.2122 8.5858L19.8456 11.963C19.8465 11.968 19.847 11.973 19.847 11.9781C19.847 12.0232 19.8104 12.0598 19.7652 12.0598H18.5563C17.9545 12.0598 17.4474 11.6105 17.375 11.0131L17.2698 10.1456C17.2503 9.98469 17.1057 9.8689 16.9444 9.88508C16.778 9.90177 16.6579 10.0521 16.6785 10.2181L16.9929 12.7587C17.0241 13.0106 17.3074 13.1559 17.5613 13.1559C17.6102 13.1559 17.6475 13.1122 17.6399 13.0639L17.6078 12.861C17.5834 12.7062 17.7031 12.5661 17.8598 12.5661H19.0402C19.8303 12.5661 20.4266 11.8492 20.2827 11.0723L19.7671 8.28898C19.5038 6.86705 18.2634 5.83539 16.8173 5.83539H14.2094C14.0559 5.83539 13.9269 5.95085 13.91 6.10343C13.8507 6.90754 13.1679 7.53296 12.3664 7.53296C11.565 7.53296 10.8822 6.90754 10.8228 6.10343C10.8059 5.95085 10.677 5.83539 10.5235 5.83539H8.16568C6.74768 5.83539 5.53252 6.84934 5.2786 8.24442L4.74576 11.1719C4.60235 11.9598 5.20762 12.6852 6.00849 12.6852H6.40159C6.96729 12.6852 7.40425 13.1823 7.33176 13.7433C7.28792 14.0826 7.06469 14.3772 6.73749 14.4772C6.22779 14.6329 5.6274 14.7446 4.79815 14.7662C4.63372 14.7705 4.5 14.9033 4.5 15.0678C4.5 15.2323 4.63365 15.3661 4.79808 15.3621C5.42722 15.3468 5.93582 15.2832 6.36939 15.1894C6.75656 15.1057 7.1431 15.4158 7.09413 15.8089C7.06892 16.0112 6.93042 16.1828 6.73461 16.2396C6.23166 16.3855 5.63192 16.5009 4.798 16.5232C4.63358 16.5276 4.5 16.6604 4.5 16.8249C4.5 16.9894 4.63338 17.1232 4.79781 17.119C5.30727 17.1058 5.73562 17.0592 6.11129 16.9934C6.52062 16.9217 6.90829 17.252 6.85815 17.6646C6.8319 17.8805 6.68793 18.0666 6.47832 18.1247C6.03204 18.2484 5.49336 18.3238 4.79791 18.3404C4.63348 18.3443 4.5 18.4771 4.5 18.6416C4.5 18.8061 4.63353 18.9399 4.79795 18.9357C5.30456 18.9226 5.73478 18.8766 6.10809 18.8123C6.42052 18.7585 6.71214 19.015 6.67195 19.3294C6.63782 19.5965 6.84592 19.8329 7.11519 19.8329H16.023Z"/>
<path fill-rule="evenodd" clip-rule="evenodd" d="M31.0229 25.5041C30.4154 24.4669 29.2891 23.7687 28.0027 23.7687H25.6046C25.3291 23.7687 25.105 23.5446 25.105 23.2691V22.8694C25.105 22.7621 25.0893 22.6558 25.0588 22.5538C25.3291 22.3534 25.5047 22.032 25.5047 21.6704C25.5047 21.0643 25.0116 20.5712 24.4055 20.5712H23.9059V20.4713C23.9059 20.1928 23.7424 19.9518 23.5063 19.8394V11.2786C23.5063 10.6725 23.0132 10.1794 22.4071 10.1794C21.801 10.1794 21.308 10.6725 21.308 11.2786V14.576H17.6109C17.0048 14.576 16.5118 15.0691 16.5118 15.6751V16.4745C16.5118 16.9846 16.8611 17.4146 17.3329 17.538L17.8683 23.6948C17.8827 23.8598 18.0279 23.9825 18.1929 23.9675C18.3579 23.9531 18.4799 23.8078 18.4656 23.6429L17.9379 17.5736H21.308V19.8394C21.0719 19.9519 20.9083 20.1929 20.9083 20.4714V20.5713H20.4087C19.8026 20.5713 19.3095 21.0644 19.3095 21.6704C19.3095 22.0321 19.4851 22.3535 19.7554 22.5539C19.725 22.6558 19.7092 22.7622 19.7092 22.8695V25.6673C19.7092 27.5957 21.2781 29.1646 23.2065 29.1646H30.8006C31.1862 29.1646 31.5 28.8508 31.5 28.4651V27.266C31.5 26.6349 31.3319 26.0423 31.0383 25.5306C31.0348 25.5239 31.0311 25.5173 31.0272 25.5109L31.0229 25.5041ZM21.9075 11.2786C21.9075 11.0031 22.1316 10.779 22.4071 10.779C22.6826 10.779 22.9067 11.0031 22.9067 11.2786V19.7719H21.9075L21.9075 11.2786ZM17.6086 16.9741C17.3342 16.9729 17.1113 16.7492 17.1113 16.4745V15.6751C17.1113 15.3996 17.3354 15.1755 17.6109 15.1755H21.308V16.9741L17.6086 16.9741ZM30.9005 28.4651C30.9005 28.5202 30.8557 28.565 30.8006 28.565H26.404C24.8061 28.565 23.5063 27.2651 23.5063 25.6673V23.6688C23.5063 23.5033 23.372 23.3691 23.2065 23.3691C23.0409 23.3691 22.9067 23.5033 22.9067 23.6688V25.6673C22.9067 26.8545 23.5014 27.9055 24.4085 28.538C22.9978 28.344 21.9075 27.1305 21.9075 25.6673V23.6688C21.9075 23.5033 21.7733 23.3691 21.6078 23.3691C21.4422 23.3691 21.308 23.5033 21.308 23.6688V25.6673C21.308 26.8545 21.9027 27.9055 22.8098 28.538C21.3991 28.344 20.3088 27.1306 20.3088 25.6674V22.8696C20.3088 22.8346 20.3125 22.7999 20.3196 22.766C20.349 22.7684 20.3788 22.7696 20.4087 22.7696H22.8069C22.9724 22.7696 23.1066 22.6355 23.1066 22.4699C23.1066 22.3043 22.9724 22.1701 22.8069 22.1701H20.4087C20.1332 22.1701 19.9091 21.946 19.9091 21.6705C19.9091 21.395 20.1332 21.1709 20.4087 21.1709H21.2081C21.3737 21.1709 21.5079 21.0367 21.5079 20.8711V20.4714C21.5079 20.4163 21.5527 20.3715 21.6078 20.3715H23.2066C23.2616 20.3715 23.3065 20.4163 23.3065 20.4714V20.8711C23.3065 21.0367 23.4407 21.1709 23.6063 21.1709H24.4056C24.6811 21.1709 24.9053 21.395 24.9053 21.6705C24.9053 21.946 24.6811 22.1701 24.4056 22.1701H24.006C23.8404 22.1701 23.7062 22.3043 23.7062 22.4699C23.7062 22.6355 23.8404 22.7696 24.006 22.7696H24.4056C24.4356 22.7696 24.4653 22.7684 24.4948 22.766C24.5019 22.7999 24.5056 22.8346 24.5056 22.8696V23.2692C24.5056 23.8753 24.9986 24.3684 25.6047 24.3684H28.0028C28.8751 24.3684 29.6586 24.7558 30.1903 25.3676H26.404C25.9124 25.3676 25.427 25.2423 25.0002 25.0055C24.8554 24.9252 24.6729 24.9773 24.5926 25.1221C24.5122 25.2669 24.5645 25.4493 24.7093 25.5296C25.2249 25.8158 25.8109 25.967 26.404 25.967H30.5927C30.7469 26.2731 30.8483 26.6103 30.8851 26.9662H26.404C25.9125 26.9662 25.4271 26.841 25.0003 26.6042C24.8555 26.5238 24.6731 26.5761 24.5927 26.7208C24.5124 26.8656 24.5646 27.0481 24.7094 27.1284C25.225 27.4145 25.8109 27.5656 26.404 27.5656H30.9004L30.9005 28.4651Z"/>
<path fill-rule="evenodd" clip-rule="evenodd" d="M30.4009 14.576H29.0343C28.9219 14.3399 28.6809 14.1763 28.4024 14.1763H26.404C26.1255 14.1763 25.8845 14.3399 25.7721 14.576H24.4055C24.24 14.576 24.1058 14.7102 24.1058 14.8757C24.1058 15.0413 24.24 15.1755 24.4055 15.1755H25.7045V15.2572C25.7045 15.8361 26.1307 16.3143 26.6959 16.3693C26.7655 16.3761 26.835 16.3763 26.9036 16.37V17.6543C26.9036 18.2598 27.3689 18.7508 27.963 18.7719C28.2637 18.782 28.5494 18.6734 28.766 18.4644C28.9826 18.2554 29.1019 17.9745 29.1019 17.6735V17.5736H30.0739L29.5462 23.6429C29.5318 23.8078 29.6539 23.9531 29.8188 23.9675C29.8276 23.9682 29.8364 23.9686 29.8451 23.9686C29.9989 23.9686 30.1299 23.8508 30.1434 23.6947L30.6788 17.5379C31.1507 17.4146 31.5 16.9846 31.5 16.4745V15.6751C31.5 15.0691 31.0069 14.576 30.4009 14.576ZM28.5023 14.8758V17.6736C28.5023 17.8104 28.4481 17.9381 28.3496 18.0332C28.2512 18.1281 28.1216 18.1768 27.9842 18.1729C27.7189 18.1634 27.5031 17.9308 27.5031 17.6544V15.967C27.5031 15.8598 27.4459 15.7609 27.353 15.7073C27.3067 15.6806 27.255 15.6673 27.2033 15.6673C27.1514 15.6673 27.0996 15.6807 27.0531 15.7077C26.9621 15.7604 26.8586 15.7829 26.7539 15.7727C26.5016 15.7481 26.304 15.5217 26.304 15.2573V14.8758C26.304 14.8207 26.3489 14.7759 26.404 14.7759H28.4024C28.4575 14.7759 28.5023 14.8206 28.5023 14.8758ZM30.9005 16.4745C30.9005 16.7492 30.6776 16.9728 30.4032 16.9741H29.1019V15.1755H30.4009C30.6764 15.1755 30.9005 15.3996 30.9005 15.6751L30.9005 16.4745Z"/>
<path d="M14.0137 28.565H20.4087C20.5742 28.565 20.7084 28.6992 20.7084 28.8647C20.7084 29.0304 20.5742 29.1645 20.4087 29.1645H14.0137C13.1872 29.1645 12.5149 28.4922 12.5149 27.6657C12.5149 26.8392 13.1872 26.1669 14.0137 26.1669H16.0261C16.0487 26.1669 16.0683 26.1587 16.0843 26.1427C16.0947 26.1322 16.1122 26.1091 16.1121 26.0722V26.0669C16.1121 25.2405 16.7844 24.5681 17.6109 24.5681H18.81C18.9755 24.5681 19.1098 24.7023 19.1098 24.8679C19.1098 25.0335 18.9756 25.1676 18.81 25.1676H17.6109C17.115 25.1676 16.7116 25.5711 16.7116 26.0669V26.0711C16.7123 26.258 16.6403 26.434 16.5089 26.5659C16.3801 26.6952 16.2086 26.7664 16.0261 26.7664H14.0137C13.5178 26.7664 13.1144 27.1698 13.1144 27.6657C13.1144 28.1616 13.5178 28.565 14.0137 28.565Z"/>
<path d="M26.304 17.2739C26.304 17.4395 26.1698 17.5736 26.0043 17.5736H24.4055C24.24 17.5736 24.1058 17.4395 24.1058 17.2739C24.1058 17.1083 24.24 16.9741 24.4055 16.9741H26.0043C26.1698 16.9741 26.304 17.1083 26.304 17.2739Z"/>
</mask>
<path d="M16.023 19.8329C16.1802 19.8329 16.3036 19.6983 16.29 19.5416C16.2779 19.4031 16.162 19.2968 16.023 19.2968H7.779C7.51867 19.2968 7.31645 19.07 7.34619 18.8114C7.36631 18.6365 7.4903 18.4921 7.65459 18.4288C7.77066 18.3841 7.88672 18.3341 8.00279 18.2842C8.85011 17.9159 9.7243 17.5475 11.6225 17.5126C11.787 17.5096 11.9212 17.3766 11.9212 17.2121C11.9212 17.0476 11.787 16.914 11.6225 16.9169C9.64463 16.9518 8.70873 17.3335 7.81876 17.6966L7.76532 17.7184C7.70596 17.7333 7.65402 17.7556 7.60208 17.7779C7.52513 17.811 7.44994 17.748 7.4603 17.6649L7.54455 16.9888C7.57089 16.7774 7.71173 16.6011 7.90593 16.5134C7.93984 16.4981 7.9723 16.4828 8.00279 16.4675C8.85011 16.0992 9.7243 15.7308 11.6226 15.6959C11.787 15.6929 11.9212 15.5599 11.9212 15.3954C11.9212 15.2309 11.787 15.0973 11.6225 15.1002C9.64463 15.1351 8.70873 15.5168 7.81875 15.8799L7.80919 15.8838C7.79735 15.8886 7.78508 15.8926 7.77281 15.8967C7.75508 15.9025 7.73732 15.9083 7.72079 15.9166C7.6983 15.9279 7.67901 15.9094 7.68212 15.8844L7.80005 14.9379C7.81544 14.8144 7.89151 14.7067 8.00279 14.6508C8.85011 14.2825 9.7243 13.9141 11.6226 13.8792C11.787 13.8762 11.9212 13.7432 11.9212 13.5787C11.9212 13.4142 11.7872 13.2806 11.6227 13.2835C9.81274 13.3165 8.85793 13.6476 7.9925 13.9478C7.92868 13.97 7.86382 13.9176 7.87193 13.8505L8.32254 10.1275C8.34256 9.9621 8.22277 9.8125 8.05697 9.79587C7.89521 9.77964 7.7504 9.8963 7.73182 10.0578L7.61235 11.0967C7.54727 11.6625 7.06823 12.0896 6.49866 12.0896C5.79846 12.0896 5.26962 11.4548 5.39607 10.7661L5.8198 8.45828C6.03544 7.28386 7.05912 6.43103 8.25317 6.43103C9.03893 6.43103 9.74127 6.88885 10.4374 7.34262C10.777 7.56403 11.1152 7.78447 11.4609 7.9503C11.7389 8.08365 12.0467 8.15838 12.3664 8.15838C12.6446 8.15838 12.9099 8.10502 13.1534 8.00802C13.5799 7.83813 13.992 7.57998 14.4048 7.32143C15.1146 6.87681 15.8263 6.43103 16.6157 6.43103C17.8869 6.43103 18.9778 7.33638 19.2122 8.5858L19.8456 11.963C19.8465 11.968 19.847 11.973 19.847 11.9781C19.847 12.0232 19.8104 12.0598 19.7652 12.0598H18.5563C17.9545 12.0598 17.4474 11.6105 17.375 11.0131L17.2698 10.1456C17.2503 9.98469 17.1057 9.8689 16.9444 9.88508C16.778 9.90177 16.6579 10.0521 16.6785 10.2181L16.9929 12.7587C17.0241 13.0106 17.3074 13.1559 17.5613 13.1559C17.6102 13.1559 17.6475 13.1122 17.6399 13.0639L17.6078 12.861C17.5834 12.7062 17.7031 12.5661 17.8598 12.5661H19.0402C19.8303 12.5661 20.4266 11.8492 20.2827 11.0723L19.7671 8.28898C19.5038 6.86705 18.2634 5.83539 16.8173 5.83539H14.2094C14.0559 5.83539 13.9269 5.95085 13.91 6.10343C13.8507 6.90754 13.1679 7.53296 12.3664 7.53296C11.565 7.53296 10.8822 6.90754 10.8228 6.10343C10.8059 5.95085 10.677 5.83539 10.5235 5.83539H8.16568C6.74768 5.83539 5.53252 6.84934 5.2786 8.24442L4.74576 11.1719C4.60235 11.9598 5.20762 12.6852 6.00849 12.6852H6.40159C6.96729 12.6852 7.40425 13.1823 7.33176 13.7433C7.28792 14.0826 7.06469 14.3772 6.73749 14.4772C6.22779 14.6329 5.6274 14.7446 4.79815 14.7662C4.63372 14.7705 4.5 14.9033 4.5 15.0678C4.5 15.2323 4.63365 15.3661 4.79808 15.3621C5.42722 15.3468 5.93582 15.2832 6.36939 15.1894C6.75656 15.1057 7.1431 15.4158 7.09413 15.8089C7.06892 16.0112 6.93042 16.1828 6.73461 16.2396C6.23166 16.3855 5.63192 16.5009 4.798 16.5232C4.63358 16.5276 4.5 16.6604 4.5 16.8249C4.5 16.9894 4.63338 17.1232 4.79781 17.119C5.30727 17.1058 5.73562 17.0592 6.11129 16.9934C6.52062 16.9217 6.90829 17.252 6.85815 17.6646C6.8319 17.8805 6.68793 18.0666 6.47832 18.1247C6.03204 18.2484 5.49336 18.3238 4.79791 18.3404C4.63348 18.3443 4.5 18.4771 4.5 18.6416C4.5 18.8061 4.63353 18.9399 4.79795 18.9357C5.30456 18.9226 5.73478 18.8766 6.10809 18.8123C6.42052 18.7585 6.71214 19.015 6.67195 19.3294C6.63782 19.5965 6.84592 19.8329 7.11519 19.8329H16.023Z" fill="#8B5CF6"/>
<path fill-rule="evenodd" clip-rule="evenodd" d="M31.0229 25.5041C30.4154 24.4669 29.2891 23.7687 28.0027 23.7687H25.6046C25.3291 23.7687 25.105 23.5446 25.105 23.2691V22.8694C25.105 22.7621 25.0893 22.6558 25.0588 22.5538C25.3291 22.3534 25.5047 22.032 25.5047 21.6704C25.5047 21.0643 25.0116 20.5712 24.4055 20.5712H23.9059V20.4713C23.9059 20.1928 23.7424 19.9518 23.5063 19.8394V11.2786C23.5063 10.6725 23.0132 10.1794 22.4071 10.1794C21.801 10.1794 21.308 10.6725 21.308 11.2786V14.576H17.6109C17.0048 14.576 16.5118 15.0691 16.5118 15.6751V16.4745C16.5118 16.9846 16.8611 17.4146 17.3329 17.538L17.8683 23.6948C17.8827 23.8598 18.0279 23.9825 18.1929 23.9675C18.3579 23.9531 18.4799 23.8078 18.4656 23.6429L17.9379 17.5736H21.308V19.8394C21.0719 19.9519 20.9083 20.1929 20.9083 20.4714V20.5713H20.4087C19.8026 20.5713 19.3095 21.0644 19.3095 21.6704C19.3095 22.0321 19.4851 22.3535 19.7554 22.5539C19.725 22.6558 19.7092 22.7622 19.7092 22.8695V25.6673C19.7092 27.5957 21.2781 29.1646 23.2065 29.1646H30.8006C31.1862 29.1646 31.5 28.8508 31.5 28.4651V27.266C31.5 26.6349 31.3319 26.0423 31.0383 25.5306C31.0348 25.5239 31.0311 25.5173 31.0272 25.5109L31.0229 25.5041ZM21.9075 11.2786C21.9075 11.0031 22.1316 10.779 22.4071 10.779C22.6826 10.779 22.9067 11.0031 22.9067 11.2786V19.7719H21.9075L21.9075 11.2786ZM17.6086 16.9741C17.3342 16.9729 17.1113 16.7492 17.1113 16.4745V15.6751C17.1113 15.3996 17.3354 15.1755 17.6109 15.1755H21.308V16.9741L17.6086 16.9741ZM30.9005 28.4651C30.9005 28.5202 30.8557 28.565 30.8006 28.565H26.404C24.8061 28.565 23.5063 27.2651 23.5063 25.6673V23.6688C23.5063 23.5033 23.372 23.3691 23.2065 23.3691C23.0409 23.3691 22.9067 23.5033 22.9067 23.6688V25.6673C22.9067 26.8545 23.5014 27.9055 24.4085 28.538C22.9978 28.344 21.9075 27.1305 21.9075 25.6673V23.6688C21.9075 23.5033 21.7733 23.3691 21.6078 23.3691C21.4422 23.3691 21.308 23.5033 21.308 23.6688V25.6673C21.308 26.8545 21.9027 27.9055 22.8098 28.538C21.3991 28.344 20.3088 27.1306 20.3088 25.6674V22.8696C20.3088 22.8346 20.3125 22.7999 20.3196 22.766C20.349 22.7684 20.3788 22.7696 20.4087 22.7696H22.8069C22.9724 22.7696 23.1066 22.6355 23.1066 22.4699C23.1066 22.3043 22.9724 22.1701 22.8069 22.1701H20.4087C20.1332 22.1701 19.9091 21.946 19.9091 21.6705C19.9091 21.395 20.1332 21.1709 20.4087 21.1709H21.2081C21.3737 21.1709 21.5079 21.0367 21.5079 20.8711V20.4714C21.5079 20.4163 21.5527 20.3715 21.6078 20.3715H23.2066C23.2616 20.3715 23.3065 20.4163 23.3065 20.4714V20.8711C23.3065 21.0367 23.4407 21.1709 23.6063 21.1709H24.4056C24.6811 21.1709 24.9053 21.395 24.9053 21.6705C24.9053 21.946 24.6811 22.1701 24.4056 22.1701H24.006C23.8404 22.1701 23.7062 22.3043 23.7062 22.4699C23.7062 22.6355 23.8404 22.7696 24.006 22.7696H24.4056C24.4356 22.7696 24.4653 22.7684 24.4948 22.766C24.5019 22.7999 24.5056 22.8346 24.5056 22.8696V23.2692C24.5056 23.8753 24.9986 24.3684 25.6047 24.3684H28.0028C28.8751 24.3684 29.6586 24.7558 30.1903 25.3676H26.404C25.9124 25.3676 25.427 25.2423 25.0002 25.0055C24.8554 24.9252 24.6729 24.9773 24.5926 25.1221C24.5122 25.2669 24.5645 25.4493 24.7093 25.5296C25.2249 25.8158 25.8109 25.967 26.404 25.967H30.5927C30.7469 26.2731 30.8483 26.6103 30.8851 26.9662H26.404C25.9125 26.9662 25.4271 26.841 25.0003 26.6042C24.8555 26.5238 24.6731 26.5761 24.5927 26.7208C24.5124 26.8656 24.5646 27.0481 24.7094 27.1284C25.225 27.4145 25.8109 27.5656 26.404 27.5656H30.9004L30.9005 28.4651Z" fill="#8B5CF6"/>
<path fill-rule="evenodd" clip-rule="evenodd" d="M30.4009 14.576H29.0343C28.9219 14.3399 28.6809 14.1763 28.4024 14.1763H26.404C26.1255 14.1763 25.8845 14.3399 25.7721 14.576H24.4055C24.24 14.576 24.1058 14.7102 24.1058 14.8757C24.1058 15.0413 24.24 15.1755 24.4055 15.1755H25.7045V15.2572C25.7045 15.8361 26.1307 16.3143 26.6959 16.3693C26.7655 16.3761 26.835 16.3763 26.9036 16.37V17.6543C26.9036 18.2598 27.3689 18.7508 27.963 18.7719C28.2637 18.782 28.5494 18.6734 28.766 18.4644C28.9826 18.2554 29.1019 17.9745 29.1019 17.6735V17.5736H30.0739L29.5462 23.6429C29.5318 23.8078 29.6539 23.9531 29.8188 23.9675C29.8276 23.9682 29.8364 23.9686 29.8451 23.9686C29.9989 23.9686 30.1299 23.8508 30.1434 23.6947L30.6788 17.5379C31.1507 17.4146 31.5 16.9846 31.5 16.4745V15.6751C31.5 15.0691 31.0069 14.576 30.4009 14.576ZM28.5023 14.8758V17.6736C28.5023 17.8104 28.4481 17.9381 28.3496 18.0332C28.2512 18.1281 28.1216 18.1768 27.9842 18.1729C27.7189 18.1634 27.5031 17.9308 27.5031 17.6544V15.967C27.5031 15.8598 27.4459 15.7609 27.353 15.7073C27.3067 15.6806 27.255 15.6673 27.2033 15.6673C27.1514 15.6673 27.0996 15.6807 27.0531 15.7077C26.9621 15.7604 26.8586 15.7829 26.7539 15.7727C26.5016 15.7481 26.304 15.5217 26.304 15.2573V14.8758C26.304 14.8207 26.3489 14.7759 26.404 14.7759H28.4024C28.4575 14.7759 28.5023 14.8206 28.5023 14.8758ZM30.9005 16.4745C30.9005 16.7492 30.6776 16.9728 30.4032 16.9741H29.1019V15.1755H30.4009C30.6764 15.1755 30.9005 15.3996 30.9005 15.6751L30.9005 16.4745Z" fill="#8B5CF6"/>
<path d="M14.0137 28.565H20.4087C20.5742 28.565 20.7084 28.6992 20.7084 28.8647C20.7084 29.0304 20.5742 29.1645 20.4087 29.1645H14.0137C13.1872 29.1645 12.5149 28.4922 12.5149 27.6657C12.5149 26.8392 13.1872 26.1669 14.0137 26.1669H16.0261C16.0487 26.1669 16.0683 26.1587 16.0843 26.1427C16.0947 26.1322 16.1122 26.1091 16.1121 26.0722V26.0669C16.1121 25.2405 16.7844 24.5681 17.6109 24.5681H18.81C18.9755 24.5681 19.1098 24.7023 19.1098 24.8679C19.1098 25.0335 18.9756 25.1676 18.81 25.1676H17.6109C17.115 25.1676 16.7116 25.5711 16.7116 26.0669V26.0711C16.7123 26.258 16.6403 26.434 16.5089 26.5659C16.3801 26.6952 16.2086 26.7664 16.0261 26.7664H14.0137C13.5178 26.7664 13.1144 27.1698 13.1144 27.6657C13.1144 28.1616 13.5178 28.565 14.0137 28.565Z" fill="#8B5CF6"/>
<path d="M26.304 17.2739C26.304 17.4395 26.1698 17.5736 26.0043 17.5736H24.4055C24.24 17.5736 24.1058 17.4395 24.1058 17.2739C24.1058 17.1083 24.24 16.9741 24.4055 16.9741H26.0043C26.1698 16.9741 26.304 17.1083 26.304 17.2739Z" fill="#8B5CF6"/>
<path d="M16.023 19.8329C16.1802 19.8329 16.3036 19.6983 16.29 19.5416C16.2779 19.4031 16.162 19.2968 16.023 19.2968H7.779C7.51867 19.2968 7.31645 19.07 7.34619 18.8114C7.36631 18.6365 7.4903 18.4921 7.65459 18.4288C7.77066 18.3841 7.88672 18.3341 8.00279 18.2842C8.85011 17.9159 9.7243 17.5475 11.6225 17.5126C11.787 17.5096 11.9212 17.3766 11.9212 17.2121C11.9212 17.0476 11.787 16.914 11.6225 16.9169C9.64463 16.9518 8.70873 17.3335 7.81876 17.6966L7.76532 17.7184C7.70596 17.7333 7.65402 17.7556 7.60208 17.7779C7.52513 17.811 7.44994 17.748 7.4603 17.6649L7.54455 16.9888C7.57089 16.7774 7.71173 16.6011 7.90593 16.5134C7.93984 16.4981 7.9723 16.4828 8.00279 16.4675C8.85011 16.0992 9.7243 15.7308 11.6226 15.6959C11.787 15.6929 11.9212 15.5599 11.9212 15.3954C11.9212 15.2309 11.787 15.0973 11.6225 15.1002C9.64463 15.1351 8.70873 15.5168 7.81875 15.8799L7.80919 15.8838C7.79735 15.8886 7.78508 15.8926 7.77281 15.8967C7.75508 15.9025 7.73732 15.9083 7.72079 15.9166C7.6983 15.9279 7.67901 15.9094 7.68212 15.8844L7.80005 14.9379C7.81544 14.8144 7.89151 14.7067 8.00279 14.6508C8.85011 14.2825 9.7243 13.9141 11.6226 13.8792C11.787 13.8762 11.9212 13.7432 11.9212 13.5787C11.9212 13.4142 11.7872 13.2806 11.6227 13.2835C9.81274 13.3165 8.85793 13.6476 7.9925 13.9478C7.92868 13.97 7.86382 13.9176 7.87193 13.8505L8.32254 10.1275C8.34256 9.9621 8.22277 9.8125 8.05697 9.79587C7.89521 9.77964 7.7504 9.8963 7.73182 10.0578L7.61235 11.0967C7.54727 11.6625 7.06823 12.0896 6.49866 12.0896C5.79846 12.0896 5.26962 11.4548 5.39607 10.7661L5.8198 8.45828C6.03544 7.28386 7.05912 6.43103 8.25317 6.43103C9.03893 6.43103 9.74127 6.88885 10.4374 7.34262C10.777 7.56403 11.1152 7.78447 11.4609 7.9503C11.7389 8.08365 12.0467 8.15838 12.3664 8.15838C12.6446 8.15838 12.9099 8.10502 13.1534 8.00802C13.5799 7.83813 13.992 7.57998 14.4048 7.32143C15.1146 6.87681 15.8263 6.43103 16.6157 6.43103C17.8869 6.43103 18.9778 7.33638 19.2122 8.5858L19.8456 11.963C19.8465 11.968 19.847 11.973 19.847 11.9781C19.847 12.0232 19.8104 12.0598 19.7652 12.0598H18.5563C17.9545 12.0598 17.4474 11.6105 17.375 11.0131L17.2698 10.1456C17.2503 9.98469 17.1057 9.8689 16.9444 9.88508C16.778 9.90177 16.6579 10.0521 16.6785 10.2181L16.9929 12.7587C17.0241 13.0106 17.3074 13.1559 17.5613 13.1559C17.6102 13.1559 17.6475 13.1122 17.6399 13.0639L17.6078 12.861C17.5834 12.7062 17.7031 12.5661 17.8598 12.5661H19.0402C19.8303 12.5661 20.4266 11.8492 20.2827 11.0723L19.7671 8.28898C19.5038 6.86705 18.2634 5.83539 16.8173 5.83539H14.2094C14.0559 5.83539 13.9269 5.95085 13.91 6.10343C13.8507 6.90754 13.1679 7.53296 12.3664 7.53296C11.565 7.53296 10.8822 6.90754 10.8228 6.10343C10.8059 5.95085 10.677 5.83539 10.5235 5.83539H8.16568C6.74768 5.83539 5.53252 6.84934 5.2786 8.24442L4.74576 11.1719C4.60235 11.9598 5.20762 12.6852 6.00849 12.6852H6.40159C6.96729 12.6852 7.40425 13.1823 7.33176 13.7433C7.28792 14.0826 7.06469 14.3772 6.73749 14.4772C6.22779 14.6329 5.6274 14.7446 4.79815 14.7662C4.63372 14.7705 4.5 14.9033 4.5 15.0678C4.5 15.2323 4.63365 15.3661 4.79808 15.3621C5.42722 15.3468 5.93582 15.2832 6.36939 15.1894C6.75656 15.1057 7.1431 15.4158 7.09413 15.8089C7.06892 16.0112 6.93042 16.1828 6.73461 16.2396C6.23166 16.3855 5.63192 16.5009 4.798 16.5232C4.63358 16.5276 4.5 16.6604 4.5 16.8249C4.5 16.9894 4.63338 17.1232 4.79781 17.119C5.30727 17.1058 5.73562 17.0592 6.11129 16.9934C6.52062 16.9217 6.90829 17.252 6.85815 17.6646C6.8319 17.8805 6.68793 18.0666 6.47832 18.1247C6.03204 18.2484 5.49336 18.3238 4.79791 18.3404C4.63348 18.3443 4.5 18.4771 4.5 18.6416C4.5 18.8061 4.63353 18.9399 4.79795 18.9357C5.30456 18.9226 5.73478 18.8766 6.10809 18.8123C6.42052 18.7585 6.71214 19.015 6.67195 19.3294C6.63782 19.5965 6.84592 19.8329 7.11519 19.8329H16.023Z" stroke="#8B5CF6" stroke-width="0.4" mask="url(#path-1-outside-1_3_500)"/>
<path fill-rule="evenodd" clip-rule="evenodd" d="M31.0229 25.5041C30.4154 24.4669 29.2891 23.7687 28.0027 23.7687H25.6046C25.3291 23.7687 25.105 23.5446 25.105 23.2691V22.8694C25.105 22.7621 25.0893 22.6558 25.0588 22.5538C25.3291 22.3534 25.5047 22.032 25.5047 21.6704C25.5047 21.0643 25.0116 20.5712 24.4055 20.5712H23.9059V20.4713C23.9059 20.1928 23.7424 19.9518 23.5063 19.8394V11.2786C23.5063 10.6725 23.0132 10.1794 22.4071 10.1794C21.801 10.1794 21.308 10.6725 21.308 11.2786V14.576H17.6109C17.0048 14.576 16.5118 15.0691 16.5118 15.6751V16.4745C16.5118 16.9846 16.8611 17.4146 17.3329 17.538L17.8683 23.6948C17.8827 23.8598 18.0279 23.9825 18.1929 23.9675C18.3579 23.9531 18.4799 23.8078 18.4656 23.6429L17.9379 17.5736H21.308V19.8394C21.0719 19.9519 20.9083 20.1929 20.9083 20.4714V20.5713H20.4087C19.8026 20.5713 19.3095 21.0644 19.3095 21.6704C19.3095 22.0321 19.4851 22.3535 19.7554 22.5539C19.725 22.6558 19.7092 22.7622 19.7092 22.8695V25.6673C19.7092 27.5957 21.2781 29.1646 23.2065 29.1646H30.8006C31.1862 29.1646 31.5 28.8508 31.5 28.4651V27.266C31.5 26.6349 31.3319 26.0423 31.0383 25.5306C31.0348 25.5239 31.0311 25.5173 31.0272 25.5109L31.0229 25.5041ZM21.9075 11.2786C21.9075 11.0031 22.1316 10.779 22.4071 10.779C22.6826 10.779 22.9067 11.0031 22.9067 11.2786V19.7719H21.9075L21.9075 11.2786ZM17.6086 16.9741C17.3342 16.9729 17.1113 16.7492 17.1113 16.4745V15.6751C17.1113 15.3996 17.3354 15.1755 17.6109 15.1755H21.308V16.9741L17.6086 16.9741ZM30.9005 28.4651C30.9005 28.5202 30.8557 28.565 30.8006 28.565H26.404C24.8061 28.565 23.5063 27.2651 23.5063 25.6673V23.6688C23.5063 23.5033 23.372 23.3691 23.2065 23.3691C23.0409 23.3691 22.9067 23.5033 22.9067 23.6688V25.6673C22.9067 26.8545 23.5014 27.9055 24.4085 28.538C22.9978 28.344 21.9075 27.1305 21.9075 25.6673V23.6688C21.9075 23.5033 21.7733 23.3691 21.6078 23.3691C21.4422 23.3691 21.308 23.5033 21.308 23.6688V25.6673C21.308 26.8545 21.9027 27.9055 22.8098 28.538C21.3991 28.344 20.3088 27.1306 20.3088 25.6674V22.8696C20.3088 22.8346 20.3125 22.7999 20.3196 22.766C20.349 22.7684 20.3788 22.7696 20.4087 22.7696H22.8069C22.9724 22.7696 23.1066 22.6355 23.1066 22.4699C23.1066 22.3043 22.9724 22.1701 22.8069 22.1701H20.4087C20.1332 22.1701 19.9091 21.946 19.9091 21.6705C19.9091 21.395 20.1332 21.1709 20.4087 21.1709H21.2081C21.3737 21.1709 21.5079 21.0367 21.5079 20.8711V20.4714C21.5079 20.4163 21.5527 20.3715 21.6078 20.3715H23.2066C23.2616 20.3715 23.3065 20.4163 23.3065 20.4714V20.8711C23.3065 21.0367 23.4407 21.1709 23.6063 21.1709H24.4056C24.6811 21.1709 24.9053 21.395 24.9053 21.6705C24.9053 21.946 24.6811 22.1701 24.4056 22.1701H24.006C23.8404 22.1701 23.7062 22.3043 23.7062 22.4699C23.7062 22.6355 23.8404 22.7696 24.006 22.7696H24.4056C24.4356 22.7696 24.4653 22.7684 24.4948 22.766C24.5019 22.7999 24.5056 22.8346 24.5056 22.8696V23.2692C24.5056 23.8753 24.9986 24.3684 25.6047 24.3684H28.0028C28.8751 24.3684 29.6586 24.7558 30.1903 25.3676H26.404C25.9124 25.3676 25.427 25.2423 25.0002 25.0055C24.8554 24.9252 24.6729 24.9773 24.5926 25.1221C24.5122 25.2669 24.5645 25.4493 24.7093 25.5296C25.2249 25.8158 25.8109 25.967 26.404 25.967H30.5927C30.7469 26.2731 30.8483 26.6103 30.8851 26.9662H26.404C25.9125 26.9662 25.4271 26.841 25.0003 26.6042C24.8555 26.5238 24.6731 26.5761 24.5927 26.7208C24.5124 26.8656 24.5646 27.0481 24.7094 27.1284C25.225 27.4145 25.8109 27.5656 26.404 27.5656H30.9004L30.9005 28.4651Z" stroke="#8B5CF6" stroke-width="0.4" mask="url(#path-1-outside-1_3_500)"/>
<path fill-rule="evenodd" clip-rule="evenodd" d="M30.4009 14.576H29.0343C28.9219 14.3399 28.6809 14.1763 28.4024 14.1763H26.404C26.1255 14.1763 25.8845 14.3399 25.7721 14.576H24.4055C24.24 14.576 24.1058 14.7102 24.1058 14.8757C24.1058 15.0413 24.24 15.1755 24.4055 15.1755H25.7045V15.2572C25.7045 15.8361 26.1307 16.3143 26.6959 16.3693C26.7655 16.3761 26.835 16.3763 26.9036 16.37V17.6543C26.9036 18.2598 27.3689 18.7508 27.963 18.7719C28.2637 18.782 28.5494 18.6734 28.766 18.4644C28.9826 18.2554 29.1019 17.9745 29.1019 17.6735V17.5736H30.0739L29.5462 23.6429C29.5318 23.8078 29.6539 23.9531 29.8188 23.9675C29.8276 23.9682 29.8364 23.9686 29.8451 23.9686C29.9989 23.9686 30.1299 23.8508 30.1434 23.6947L30.6788 17.5379C31.1507 17.4146 31.5 16.9846 31.5 16.4745V15.6751C31.5 15.0691 31.0069 14.576 30.4009 14.576ZM28.5023 14.8758V17.6736C28.5023 17.8104 28.4481 17.9381 28.3496 18.0332C28.2512 18.1281 28.1216 18.1768 27.9842 18.1729C27.7189 18.1634 27.5031 17.9308 27.5031 17.6544V15.967C27.5031 15.8598 27.4459 15.7609 27.353 15.7073C27.3067 15.6806 27.255 15.6673 27.2033 15.6673C27.1514 15.6673 27.0996 15.6807 27.0531 15.7077C26.9621 15.7604 26.8586 15.7829 26.7539 15.7727C26.5016 15.7481 26.304 15.5217 26.304 15.2573V14.8758C26.304 14.8207 26.3489 14.7759 26.404 14.7759H28.4024C28.4575 14.7759 28.5023 14.8206 28.5023 14.8758ZM30.9005 16.4745C30.9005 16.7492 30.6776 16.9728 30.4032 16.9741H29.1019V15.1755H30.4009C30.6764 15.1755 30.9005 15.3996 30.9005 15.6751L30.9005 16.4745Z" stroke="#8B5CF6" stroke-width="0.4" mask="url(#path-1-outside-1_3_500)"/>
<path d="M14.0137 28.565H20.4087C20.5742 28.565 20.7084 28.6992 20.7084 28.8647C20.7084 29.0304 20.5742 29.1645 20.4087 29.1645H14.0137C13.1872 29.1645 12.5149 28.4922 12.5149 27.6657C12.5149 26.8392 13.1872 26.1669 14.0137 26.1669H16.0261C16.0487 26.1669 16.0683 26.1587 16.0843 26.1427C16.0947 26.1322 16.1122 26.1091 16.1121 26.0722V26.0669C16.1121 25.2405 16.7844 24.5681 17.6109 24.5681H18.81C18.9755 24.5681 19.1098 24.7023 19.1098 24.8679C19.1098 25.0335 18.9756 25.1676 18.81 25.1676H17.6109C17.115 25.1676 16.7116 25.5711 16.7116 26.0669V26.0711C16.7123 26.258 16.6403 26.434 16.5089 26.5659C16.3801 26.6952 16.2086 26.7664 16.0261 26.7664H14.0137C13.5178 26.7664 13.1144 27.1698 13.1144 27.6657C13.1144 28.1616 13.5178 28.565 14.0137 28.565Z" stroke="#8B5CF6" stroke-width="0.4" mask="url(#path-1-outside-1_3_500)"/>
<path d="M26.304 17.2739C26.304 17.4395 26.1698 17.5736 26.0043 17.5736H24.4055C24.24 17.5736 24.1058 17.4395 24.1058 17.2739C24.1058 17.1083 24.24 16.9741 24.4055 16.9741H26.0043C26.1698 16.9741 26.304 17.1083 26.304 17.2739Z" stroke="#8B5CF6" stroke-width="0.4" mask="url(#path-1-outside-1_3_500)"/>
</svg>
