<svg width="36" height="35" viewBox="0 0 36 35" fill="none" xmlns="http://www.w3.org/2000/svg">
<path d="M31.2186 25.5413C31.036 25.2 30.7664 24.9018 30.4274 24.6848L18.3023 16.9172V15.8192C18.3021 15.7814 18.3199 15.7473 18.3464 15.7232C18.4548 15.7135 18.5984 15.6959 18.7672 15.6621C19.1131 15.5922 19.5676 15.4635 20.024 15.1629C20.6935 14.7185 21.2484 14.1132 21.6376 13.3978C22.0265 12.6824 22.2485 11.8553 22.2483 10.9828C22.2488 9.60991 21.7003 8.35796 20.8189 7.4589C19.9386 6.55909 18.7123 6 17.368 6C16.3603 6 15.4161 6.31386 14.6382 6.85125C13.8599 7.38854 13.2426 8.14735 12.8712 9.04281C12.6702 9.52792 12.8928 10.0878 13.368 10.2931C13.8433 10.4981 14.3919 10.2714 14.5927 9.78633C14.8206 9.2357 15.2039 8.76431 15.685 8.43268C16.1664 8.10116 16.741 7.90821 17.3679 7.90821C18.2019 7.90821 18.9491 8.25061 19.4971 8.80889C20.0436 9.36792 20.3787 10.1307 20.379 10.9828C20.3787 11.5262 20.2429 12.0297 20.0032 12.4714C19.7634 12.9123 19.4189 13.2885 19.0056 13.5626C18.8445 13.6723 18.6048 13.7527 18.4111 13.7896C18.3147 13.8085 18.231 13.8186 18.1764 13.823C18.1489 13.8258 18.129 13.827 18.1186 13.8274H18.1131L17.9863 13.829L17.8619 13.8668C17.0147 14.1229 16.4333 14.917 16.4331 15.8193V16.9466L5.4797 24.7475L5.47991 24.7467C4.85416 25.1924 4.49942 25.9146 4.5 26.6638C4.5 26.8977 4.5347 27.1344 4.60552 27.3639C4.90526 28.3381 5.78909 29 6.78867 29H29.2112C30.2316 29 31.1282 28.3107 31.4106 27.3096V27.3092C31.4703 27.0958 31.5 26.8783 31.5 26.6637C31.5 26.2679 31.4014 25.8828 31.2186 25.5413ZM29.6143 26.7827V26.7823C29.5627 26.9652 29.398 27.0922 29.2112 27.0922H6.78867C6.60542 27.0922 6.44337 26.97 6.38868 26.7924C6.37508 26.749 6.36922 26.7059 6.36922 26.6637C6.36959 26.5263 6.43377 26.3936 6.54852 26.3125H6.54894L17.3951 18.5888L29.434 26.3008C29.4976 26.3419 29.5448 26.3949 29.5789 26.4576C29.6127 26.5203 29.631 26.5914 29.631 26.6638C29.631 26.7028 29.6255 26.7417 29.6143 26.7827Z" fill="#8B5CF6"/>
</svg>
