<svg width="36" height="35" viewBox="0 0 36 35" fill="none" xmlns="http://www.w3.org/2000/svg">
<path d="M11.25 14.95H12.9375C13.4041 14.95 13.7812 15.33 13.7812 15.8C13.7812 16.2701 13.4041 16.65 12.9375 16.65H11.25C10.7834 16.65 10.4062 16.2701 10.4062 15.8C10.4062 15.33 10.7834 14.95 11.25 14.95Z" fill="#8B5CF6"/>
<path d="M12.9375 12.4H11.25C10.7834 12.4 10.4062 12.78 10.4062 13.25C10.4062 13.7201 10.7834 14.1 11.25 14.1H12.9375C13.4041 14.1 13.7812 13.7201 13.7812 13.25C13.7812 12.78 13.4041 12.4 12.9375 12.4Z" fill="#8B5CF6"/>
<path fill-rule="evenodd" clip-rule="evenodd" d="M7.686 9H19.6875C19.8052 9 19.9172 9.02417 20.0189 9.06786C20.5813 9.17611 21.0932 9.45956 21.4814 9.85H23.5038C24.356 9.85 25.5938 10.5181 25.5938 11.5653V12.4H30.6562C31.1228 12.4 31.5 12.78 31.5 13.25C31.5 13.7201 31.1228 14.1 30.6562 14.1H25.5938V14.1068C25.5938 15.1557 24.3771 15.8 23.5038 15.8H21.5301C21.2557 16.0911 20.9137 16.322 20.5312 16.4665V25.15C20.5312 25.6201 20.1541 26 19.6875 26C19.2209 26 18.8437 25.6201 18.8437 25.15V16.65H17.1562C16.612 16.65 16.3125 16.9518 16.3125 17.5V23.3497C16.3125 24.8661 14.6984 26 13.2547 26H10.1464C8.76684 26 7.875 24.946 7.875 23.314V20.9H7.686C6.72834 20.9 4.5 20.5056 4.5 16.8549V13.0826C4.5 9.3978 6.72834 9 7.686 9ZM19.3335 10.7H9.5625V23.314C9.5625 24.3 10.0021 24.3 10.1464 24.3H13.2547C13.8825 24.3 14.625 23.7849 14.625 23.3497V17.5C14.625 16.0227 15.6898 14.95 17.1562 14.95H19.4572C19.5078 14.9405 19.5599 14.9356 19.6132 14.9356C20.0857 14.9356 20.5312 14.5344 20.5312 14.1111V11.5449C20.5312 11.1437 20.009 10.7196 19.5145 10.7196C19.4524 10.7196 19.3918 10.7128 19.3335 10.7ZM7.686 10.7H7.875V19.2H7.686C7.23797 19.2 6.1875 19.2 6.1875 16.8549V13.0826C6.1875 10.7 7.27678 10.7 7.686 10.7ZM22.2188 14.1V11.55H23.5038C23.6025 11.55 23.8025 11.6333 23.9062 11.7098V13.9538C23.7999 14.0252 23.605 14.1 23.5038 14.1H22.2188Z" fill="#8B5CF6"/>
</svg>
