<svg width="36" height="35" viewBox="0 0 36 35" fill="none" xmlns="http://www.w3.org/2000/svg">
<path d="M17.7728 16.1664C17.9614 16.2935 18.2089 16.2934 18.3957 16.1634C19.7577 15.2159 24.6927 11.6454 24.8366 7.96546C24.8366 5.77855 23.1964 4 21.1804 4C20.4696 4 19.8052 4.22144 19.243 4.60391C18.6093 5.03501 17.5639 5.03501 16.9302 4.60391C16.3681 4.22144 15.7037 4 14.9929 4C12.9769 4 11.3366 5.77855 11.3366 7.96546C11.3366 11.7847 17.5095 15.9886 17.7728 16.1664ZM14.9929 5.12608C16.2182 5.12608 17.2426 6.10794 17.4748 7.40689C17.5295 7.7127 17.776 7.96658 18.0866 7.96658C18.3973 7.96658 18.6438 7.7127 18.6985 7.40689C18.9309 6.10794 19.956 5.12608 21.1804 5.12608C22.5754 5.12608 23.7116 6.40065 23.7116 7.96658C23.7116 10.2443 20.6021 13.1044 18.6592 14.5918C18.3205 14.851 17.8527 14.8511 17.514 14.5919C15.5704 13.1045 12.4616 10.2444 12.4616 7.96658C12.4616 6.40065 13.5967 5.12608 14.9929 5.12608ZM31.5 23.6878C31.5 23.3772 31.2482 23.1253 30.9375 23.1253C30.6269 23.1253 30.375 22.8735 30.375 22.5628V19.6255C30.375 19.0732 29.9273 18.6255 29.375 18.6255H28C27.4477 18.6255 27 18.1778 27 17.6255V17.3756C27 16.8233 26.5523 16.3756 26 16.3756H23.5C22.9477 16.3756 22.5 16.8233 22.5 17.3756V22.1253C22.5 22.6776 22.0523 23.1253 21.5 23.1253H14.5C13.9477 23.1253 13.5 22.6776 13.5 22.1253V17.3756C13.5 16.8233 13.0523 16.3756 12.5 16.3756H10C9.44772 16.3756 9 16.8233 9 17.3756V17.6255C9 18.1778 8.55228 18.6255 8 18.6255H6.625C6.07272 18.6255 5.625 19.0732 5.625 19.6255V22.5628C5.625 22.8735 5.37315 23.1253 5.06249 23.1253C4.75184 23.1253 4.5 23.3772 4.5 23.6878C4.5 23.9985 4.75184 24.2503 5.06249 24.2503C5.37315 24.2503 5.625 24.5021 5.625 24.8128V27.7501C5.625 28.3024 6.07272 28.7501 6.625 28.7501H8C8.55228 28.7501 9 29.1978 9 29.7501V30C9 30.5523 9.44772 31 10 31H12.5C13.0523 31 13.5 30.5523 13.5 30V25.2503C13.5 24.698 13.9477 24.2503 14.5 24.2503H21.5C22.0523 24.2503 22.5 24.698 22.5 25.2503V30C22.5 30.5523 22.9477 31 23.5 31H26C26.5523 31 27 30.5523 27 30V29.7501C27 29.1978 27.4477 28.7501 28 28.7501H29.375C29.9273 28.7501 30.375 28.3024 30.375 27.7501V24.8128C30.375 24.5021 30.6269 24.2503 30.9375 24.2503C31.2482 24.2503 31.5 23.9985 31.5 23.6878ZM7.75 27.6251C7.19772 27.6251 6.75 27.1774 6.75 26.6251V20.7505C6.75 20.1982 7.19772 19.7505 7.75 19.7505H8C8.55228 19.7505 9 20.1982 9 20.7505V26.6251C9 27.1774 8.55228 27.6251 8 27.6251H7.75ZM12.375 28.875C12.375 29.4273 11.9273 29.875 11.375 29.875H11.125C10.5727 29.875 10.125 29.4273 10.125 28.875V18.5006C10.125 17.9483 10.5727 17.5006 11.125 17.5006H11.375C11.9273 17.5006 12.375 17.9483 12.375 18.5006V28.875ZM25.875 28.875C25.875 29.4273 25.4273 29.875 24.875 29.875H24.625C24.0727 29.875 23.625 29.4273 23.625 28.875V18.5006C23.625 17.9483 24.0727 17.5006 24.625 17.5006H24.875C25.4273 17.5006 25.875 17.9483 25.875 18.5006V28.875ZM29.25 26.6251C29.25 27.1774 28.8023 27.6251 28.25 27.6251H28C27.4477 27.6251 27 27.1774 27 26.6251V20.7505C27 20.1982 27.4477 19.7505 28 19.7505H28.25C28.8023 19.7505 29.25 20.1982 29.25 20.7505V26.6251Z" fill="#8B5CF6"/>
</svg>
