<svg width="36" height="35" viewBox="0 0 36 35" fill="none" xmlns="http://www.w3.org/2000/svg">
<path d="M18.3819 16H8.61806C6.07197 16 4 17.9889 4 20.4329V32.5074C4 32.7793 4.22988 33 4.51312 33C4.79636 33 5.02623 32.7793 5.02623 32.5074V30.0447H21.9738V32.5074C21.9738 32.7793 22.2036 33 22.4869 33C22.7701 33 23 32.7793 23 32.5074V20.4329C23 17.9889 20.928 16 18.3819 16ZM8.61806 16.9851H18.3819C20.3626 16.9851 21.9738 18.5317 21.9738 20.4329V25.1192H21.3287V23.6416C21.3287 21.7403 19.7175 20.1937 17.7369 20.1937H16.5787C15.2733 20.1937 14.1291 20.8655 13.5 21.8674C12.8709 20.8655 11.7267 20.1937 10.4213 20.1937H9.26312C7.28248 20.1937 5.6713 21.7403 5.6713 23.6416V25.1192H5.02623V20.4329C5.02623 18.5317 6.63742 16.9851 8.61806 16.9851ZM14.0131 25.1192V23.6416C14.0131 22.2841 15.1635 21.1788 16.5787 21.1788H17.7369C19.1521 21.1788 20.3025 22.2841 20.3025 23.6416V25.1192H14.0131ZM6.69753 25.1192V23.6416C6.69753 22.2841 7.84897 21.1788 9.26312 21.1788H10.4213C11.8354 21.1788 12.9869 22.2841 12.9869 23.6416V25.1192H6.69753ZM5.02623 29.0596V26.1043H21.9738V29.0596H5.02623Z" fill="#8B5CF6"/>
<path d="M24.999 1.90039C26.584 1.90039 27.9656 2.92385 28.4365 4.44531C28.52 4.71507 28.7189 4.90736 28.9834 4.97754C31.0175 5.5156 32.34 7.5105 32.0635 9.61719C31.8232 11.4429 30.3967 12.9168 28.5918 13.2021C28.3668 13.2376 28.1394 13.2559 27.917 13.2559H25.3916V32.7061C25.3916 32.9227 25.2168 33.0996 25 33.0996C24.7832 33.0996 24.6084 32.9227 24.6084 32.7061V13.2559H22.083C21.8606 13.2559 21.6332 13.2376 21.4082 13.2021C19.6034 12.9168 18.1762 11.4429 17.9365 9.61719C17.66 7.51041 18.9829 5.51587 21.0166 4.97852C21.281 4.90828 21.4801 4.71597 21.5635 4.44629C22.0343 2.92428 23.4141 1.90056 24.999 1.90039ZM25 2.6875C23.7607 2.6875 22.6797 3.48778 22.3115 4.67969C22.1498 5.20333 21.7405 5.60048 21.2168 5.73926C19.5653 6.17526 18.488 7.79736 18.7129 9.51367C18.905 10.9727 20.0915 12.1981 21.5303 12.4248C21.7154 12.4539 21.9018 12.4688 22.083 12.4688H24.6094V10.9688L22.0986 8.44238C21.9462 8.28889 21.9461 8.04019 22.0986 7.88672C22.2515 7.73316 22.4995 7.73313 22.6523 7.88672L24.6084 9.85352V6.99023C24.6084 6.7736 24.7842 6.59668 25.001 6.59668C25.2176 6.59689 25.3925 6.77373 25.3926 6.99023V9.85449L27.3486 7.88672C27.5015 7.73296 27.7505 7.73291 27.9033 7.88672C28.0555 8.04007 28.0553 8.28892 27.9033 8.44238L25.3916 10.9688V12.4688H27.917C28.0989 12.4688 28.2848 12.454 28.4707 12.4248C29.9094 12.1974 31.0956 10.9725 31.2871 9.51367C31.5115 7.79736 30.4342 6.17583 28.7832 5.73926C28.2587 5.60102 27.8491 5.20391 27.6875 4.67969C27.3193 3.48785 26.2393 2.6875 25 2.6875Z" fill="#8B5CF6" stroke="#8B5CF6" stroke-width="0.2"/>
</svg>
