<svg width="24" height="24" viewBox="0 0 24 24" fill="none" xmlns="http://www.w3.org/2000/svg">
<path d="M10.0932 21.2988C10.7983 21.9212 11.7246 22.2988 12.739 22.2988C13.7535 22.2988 14.6797 21.9212 15.3849 21.2988M18.739 8.29883C18.739 6.70753 18.1069 5.18141 16.9817 4.05619C15.8565 2.93097 14.3303 2.29883 12.739 2.29883C11.1477 2.29883 9.62161 2.93097 8.49639 4.05619C7.37117 5.18141 6.73903 6.70753 6.73903 8.29883C6.73903 11.389 5.9595 13.5048 5.0887 14.9042C4.35416 16.0847 3.98689 16.6749 4.00036 16.8396C4.01527 17.0219 4.05389 17.0914 4.20081 17.2004C4.33349 17.2988 4.93162 17.2988 6.12789 17.2988H19.3502C20.5464 17.2988 21.1446 17.2988 21.2773 17.2004C21.4242 17.0914 21.4628 17.0219 21.4777 16.8396C21.4912 16.6749 21.1239 16.0847 20.3894 14.9042C19.5186 13.5048 18.739 11.389 18.739 8.29883Z" stroke="#020617" stroke-opacity="0.5" stroke-linecap="round" stroke-linejoin="round"/>
</svg>
