<svg width="36" height="35" viewBox="0 0 36 35" fill="none" xmlns="http://www.w3.org/2000/svg">
<path d="M17.9711 30.2947C16.1938 30.6364 14.3648 30.6033 12.6011 30.1975C10.8374 29.7916 9.17783 29.022 7.72869 27.9378C6.27956 26.8537 5.07276 25.4789 4.18555 23.9015C3.29834 22.324 2.75027 20.5787 2.57642 18.7773C2.40257 16.9759 2.60677 15.158 3.17596 13.44C3.74514 11.7221 4.66676 10.1419 5.88183 8.80059C7.09689 7.45932 8.57863 6.38654 10.2322 5.6509C11.8857 4.91527 13.6747 4.53301 15.4845 4.52857" stroke="#8B5CF6" stroke-linecap="round" stroke-linejoin="round"/>
<path d="M17.9711 30.2947C16.1938 30.6364 14.3648 30.6033 12.6011 30.1975C10.8374 29.7916 9.17783 29.022 7.72869 27.9378C6.27956 26.8537 5.07276 25.4789 4.18555 23.9015C3.29834 22.324 2.75027 20.5787 2.57642 18.7773C2.40257 16.9759 2.60677 15.158 3.17596 13.44C3.74514 11.7221 4.66676 10.1419 5.88183 8.80059C7.09689 7.45932 8.57863 6.38654 10.2322 5.6509C11.8857 4.91527 13.6747 4.53301 15.4845 4.52857" stroke="black" stroke-opacity="0.2" stroke-linecap="round" stroke-linejoin="round"/>
<path d="M16.1514 26.5061C13.8012 26.6724 11.4795 25.9104 9.68482 24.3837C7.89019 22.8571 6.76578 20.6876 6.55306 18.3411C6.34033 15.9946 7.05626 13.6583 8.5471 11.8338C10.0379 10.0093 12.1848 8.8422 14.5266 8.58311" stroke="#8B5CF6" stroke-linecap="round" stroke-linejoin="round"/>
<path d="M16.1514 26.5061C13.8012 26.6724 11.4795 25.9104 9.68482 24.3837C7.89019 22.8571 6.76578 20.6876 6.55306 18.3411C6.34033 15.9946 7.05626 13.6583 8.5471 11.8338C10.0379 10.0093 12.1848 8.8422 14.5266 8.58311" stroke="black" stroke-opacity="0.2" stroke-linecap="round" stroke-linejoin="round"/>
<path d="M20.6062 3.88062C21.7133 3.8049 22.7684 4.18375 23.5769 4.94604C24.3741 5.69782 24.8283 6.75465 24.821 7.84546L24.8152 8.82397C24.8086 9.8594 24.3884 10.8494 23.656 11.5662C23.4341 11.7833 23.0403 12.0655 22.7419 12.2253L22.6492 26.8689C22.6461 27.355 22.4546 27.81 22.1091 28.1482C21.8719 28.3804 21.5802 28.5366 21.2644 28.6101L21.2615 29.1609C21.259 29.6611 21.5782 29.9807 21.8816 30.1121H21.8826C22.186 30.2438 22.6329 30.2584 22.987 29.9119L26.1101 26.8562C26.8091 26.1721 27.1972 25.2532 27.2029 24.2683L27.2214 21.3474C27.2276 20.4479 27.5827 19.6083 28.2204 18.9841C29.5783 17.6554 31.5706 17.6351 32.8493 18.949L33.8171 19.9441C33.9869 20.1185 33.984 20.3968 33.8103 20.5671C33.6356 20.7381 33.3548 20.7354 33.1843 20.5603L32.2175 19.5662C31.2971 18.6205 29.8484 18.6375 28.8415 19.6228C28.3728 20.0815 28.1123 20.698 28.1072 21.3601L28.0896 24.282C28.0819 25.5033 27.6 26.6446 26.7322 27.4939L23.6091 30.5505C23.0515 31.0962 22.2551 31.2398 21.5349 30.9265C20.8151 30.6133 20.3688 29.9314 20.3738 29.1472L20.3777 28.5935C19.5915 28.3804 19.01 27.6568 19.0154 26.8054L19.1091 12.1697C17.9421 11.5076 17.1281 10.2397 17.0378 8.80054L17.03 8.50659L17.0329 7.88647C17.0466 5.78289 18.6112 4.01915 20.6052 3.88062H20.6062ZM19.9021 26.8191C19.8989 27.3341 20.314 27.7607 20.8269 27.7703C21.3206 27.7792 21.7584 27.351 21.7615 26.8552L21.8523 12.5574C21.433 12.6551 20.9937 12.6845 20.5476 12.6375C20.3582 12.617 20.1732 12.5809 19.9929 12.533L19.9021 26.8191ZM20.6755 4.76733C19.9889 4.81499 19.3658 5.11759 18.8865 5.58667C18.2976 6.16297 17.9254 6.9893 17.9197 7.90015L17.9167 8.51929C17.9064 10.1757 19.1065 11.5921 20.6345 11.7527C21.49 11.8427 22.3082 11.5804 22.9402 11.0144C23.5595 10.4596 23.9241 9.65272 23.9294 8.80933L23.9343 7.83179L23.9314 7.67358C23.895 6.8874 23.5518 6.13503 22.9734 5.5896C22.3482 5.00047 21.5327 4.70839 20.6755 4.76733Z" fill="#8B5CF6" stroke="#8B5CF6" stroke-width="0.2"/>
</svg>
